<svg xmlns="http://www.w3.org/2000/svg" x="0px" y="0px" width="100" height="100" viewBox="0 0 172 172" style=" fill:#000000;">
    <g fill="none" fill-rule="nonzero" stroke="none" stroke-width="1" stroke-linecap="butt" stroke-linejoin="miter" stroke-miterlimit="10" stroke-dasharray="" stroke-dashoffset="0" font-family="none" font-weight="none" font-size="none" text-anchor="none" style="mix-blend-mode: normal">
        <path d="M0,172v-172h172v172z" fill="none"></path>
        <path d="M85.14,86.86v-1.72h1.72v1.72z" fill="#000000"></path>
        <g>
            <path d="M54.46217,27.86383h-1.96286c-7.43504,0 -13.51714,6.08364 -13.51714,13.51714v95.25618c0,7.43504 6.08364,13.51714 13.51714,13.51714h67.39218c7.43504,0 13.51714,-6.08364 13.51714,-13.51714v-77.43096c-12.1874,-12.18895 -19.15186,-19.15186 -31.34081,-31.34236h-29.02964" fill="#fefdef"></path>
            <path d="M119.89303,151.70383h-67.39218c-8.30812,0 -15.06514,-6.75857 -15.06514,-15.06514v-95.25618c0,-8.30812 6.75857,-15.06514 15.06514,-15.06514h1.96286c0.8545,0 1.548,0.6935 1.548,1.548c0,0.8545 -0.6935,1.548 -1.548,1.548h-1.96286c-6.60067,0 -11.96914,5.37001 -11.96914,11.96914v95.25618c0,6.60067 5.37001,11.96914 11.96914,11.96914h67.39218c6.60067,0 11.96914,-5.37001 11.96914,-11.96914v-76.79009l-30.43523,-30.43678h-28.38877c-0.8545,0 -1.548,-0.6935 -1.548,-1.548c0,-0.8545 0.6935,-1.548 1.548,-1.548h29.0281c0.41022,0 0.80496,0.16254 1.09444,0.45356l31.3439,31.3439c0.29102,0.29102 0.45356,0.68422 0.45356,1.09444v77.43096c0,8.30657 -6.75857,15.06514 -15.06514,15.06514z" fill="#1f212b"></path>
            <path d="M101.67617,28.63783v17.00633c0,7.67498 6.28024,13.95367 13.95367,13.95367h18.55433" fill="#fef6aa"></path>
            <path d="M134.18417,60.37183h-18.55278c-8.12236,0 -14.72922,-6.60686 -14.72922,-14.72922v-17.00478c0,-0.42725 0.34675,-0.774 0.774,-0.774c0.42725,0 0.774,0.34675 0.774,0.774v17.00478c0,7.26786 5.91336,13.18122 13.18122,13.18122h18.55278c0.42725,0 0.774,0.34675 0.774,0.774c0,0.42725 -0.3452,0.774 -0.774,0.774zM124.89617,88.23583c-0.42725,0 -0.774,-0.34675 -0.774,-0.774v-4.644c0,-0.42725 0.34675,-0.774 0.774,-0.774c0.42725,0 0.774,0.34675 0.774,0.774v4.644c0,0.42725 -0.3452,0.774 -0.774,0.774zM124.89617,100.61983c-0.42725,0 -0.774,-0.34675 -0.774,-0.774v-9.288c0,-0.42725 0.34675,-0.774 0.774,-0.774c0.42725,0 0.774,0.34675 0.774,0.774v9.288c0,0.42725 -0.3452,0.774 -0.774,0.774zM113.81558,142.41583h-55.23883c-6.5372,0 -11.85458,-5.3406 -11.85458,-11.90257v-81.52232c0,-3.94585 1.95667,-7.63319 5.23534,-9.86231c0.35294,-0.24149 0.83592,-0.14706 1.07586,0.20434c0.23994,0.35449 0.14861,0.83592 -0.20434,1.07586c-2.85451,1.94119 -4.55731,5.14865 -4.55731,8.58211v81.52232c0,5.70902 4.62388,10.35457 10.30658,10.35457h55.24038c5.68271,0 10.30658,-4.64555 10.30658,-10.35457v-27.57143c0,-0.42725 0.34675,-0.774 0.774,-0.774c0.42725,0 0.774,0.34675 0.774,0.774v27.57143c-0.0031,6.56197 -5.32048,11.90257 -11.85768,11.90257z" fill="#1f212b"></path>
            <path d="M70.23319,30.95983l-0.18112,18.31903c0,3.42108 -3.22758,5.67497 -6.24773,5.67497c-3.02015,0 -6.52792,-2.22757 -6.52792,-5.64865l0.05728,-19.47384c0,-2.02324 2.48764,-3.79415 4.33595,-3.79415c1.84831,0 3.63006,1.77865 3.63006,3.80189l0.03251,16.76329c0,0 -0.12848,1.03252 -1.55574,0.99846c-0.78484,-0.01858 -1.77246,-0.55109 -1.57277,-1.40249v-15.23696h-1.25852l-0.03251,15.02798c0,2.13624 0.83592,3.0155 2.9025,3.0155c2.06658,0 3.03253,-1.10527 3.03253,-3.24151v-15.79734c0,-3.51551 -2.10528,-5.418 -5.31893,-5.418c-3.21365,0 -5.51707,1.95203 -5.51707,5.46754l0.04954,18.74628c0,4.70592 3.2864,7.59449 7.69046,7.59449c4.40406,0 7.74,-2.64708 7.74,-7.353v-18.04349zM90.84017,89.78383h-35.604c-0.42725,0 -0.774,-0.34675 -0.774,-0.774c0,-0.42725 0.34675,-0.774 0.774,-0.774h35.604c0.42725,0 0.774,0.34675 0.774,0.774c0,0.42725 -0.3452,0.774 -0.774,0.774zM76.90817,100.61983h-21.672c-0.42725,0 -0.774,-0.34675 -0.774,-0.774c0,-0.42725 0.34675,-0.774 0.774,-0.774h21.672c0.42725,0 0.774,0.34675 0.774,0.774c0,0.42725 -0.3452,0.774 -0.774,0.774zM117.15617,100.61983h-37.152c-0.42725,0 -0.774,-0.34675 -0.774,-0.774c0,-0.42725 0.34675,-0.774 0.774,-0.774h37.152c0.42725,0 0.774,0.34675 0.774,0.774c0,0.42725 -0.3452,0.774 -0.774,0.774zM103.22417,111.45583h-17.028c-0.42725,0 -0.774,-0.34675 -0.774,-0.774c0,-0.42725 0.34675,-0.774 0.774,-0.774h17.028c0.42725,0 0.774,0.34675 0.774,0.774c0,0.42725 -0.3452,0.774 -0.774,0.774zM118.70417,111.45583h-12.384c-0.42725,0 -0.774,-0.34675 -0.774,-0.774c0,-0.42725 0.34675,-0.774 0.774,-0.774h12.384c0.42725,0 0.774,0.34675 0.774,0.774c0,0.42725 -0.3452,0.774 -0.774,0.774zM83.10017,111.45583h-27.864c-0.42725,0 -0.774,-0.34675 -0.774,-0.774c0,-0.42725 0.34675,-0.774 0.774,-0.774h27.864c0.42725,0 0.774,0.34675 0.774,0.774c0,0.42725 -0.3452,0.774 -0.774,0.774zM117.15617,122.29183h-20.124c-0.42725,0 -0.774,-0.34675 -0.774,-0.774c0,-0.42725 0.34675,-0.774 0.774,-0.774h20.124c0.42725,0 0.774,0.34675 0.774,0.774c0,0.42725 -0.3452,0.774 -0.774,0.774zM92.38817,122.29183h-37.152c-0.42725,0 -0.774,-0.34675 -0.774,-0.774c0,-0.42725 0.34675,-0.774 0.774,-0.774h37.152c0.42725,0 0.774,0.34675 0.774,0.774c0,0.42725 -0.3452,0.774 -0.774,0.774z" fill="#1f212b"></path>
        </g>
    </g>
</svg>