<svg xmlns="http://www.w3.org/2000/svg" x="0px" y="0px" width="100" height="100" viewBox="0 0 100 100" style=" fill:#000000;">
    <path fill="#f1bc19" d="M77 12A1 1 0 1 0 77 14A1 1 0 1 0 77 12Z"></path>
    <path fill="#e6edb7" d="M50 13A37 37 0 1 0 50 87A37 37 0 1 0 50 13Z"></path>
    <path fill="#f1bc19" d="M83 11A4 4 0 1 0 83 19A4 4 0 1 0 83 11Z"></path>
    <path fill="#88ae45" d="M87 22A2 2 0 1 0 87 26A2 2 0 1 0 87 22Z"></path>
    <path fill="#fbcd59" d="M81 74A2 2 0 1 0 81 78 2 2 0 1 0 81 74zM15 59A4 4 0 1 0 15 67 4 4 0 1 0 15 59z"></path>
    <path fill="#88ae45" d="M25 85A2 2 0 1 0 25 89A2 2 0 1 0 25 85Z"></path>
    <path fill="#fff" d="M18.5 49A2.5 2.5 0 1 0 18.5 54 2.5 2.5 0 1 0 18.5 49zM79.5 32A1.5 1.5 0 1 0 79.5 35 1.5 1.5 0 1 0 79.5 32z"></path>
    <path fill="#472b29" d="M33.667,46.392H32.56c-0.276,0-0.5-0.224-0.5-0.5s0.224-0.5,0.5-0.5h1.107 c0.276,0,0.5,0.224,0.5,0.5S33.944,46.392,33.667,46.392z"></path>
    <path fill="#edf7f5" d="M45.715,19.98h11.754c4.936,4.824,7.756,7.581,12.692,12.405V63.03c0,2.943-2.463,5.35-5.474,5.35 H37.398c-3.011,0-5.474-2.408-5.474-5.35v-37.7c0-2.943,2.463-5.35,5.474-5.35h0.795L45.715,19.98z"></path>
    <path fill="#472b29" d="M64.687,69.081H37.399c-3.404,0-6.175-2.714-6.175-6.05v-37.7c0-3.336,2.771-6.05,6.175-6.05h20.07 c0.183,0,0.358,0.072,0.489,0.2L70.65,31.885c0.135,0.132,0.211,0.312,0.211,0.5v30.646 C70.861,66.367,68.091,69.081,64.687,69.081z M37.399,20.681c-2.633,0-4.774,2.086-4.774,4.65v37.7c0,2.564,2.142,4.65,4.774,4.65 h27.288c2.632,0,4.773-2.086,4.773-4.65V32.68L57.184,20.681H37.399z"></path>
    <path fill="#85cfcc" d="M57.311,20.287v6.73c0,3.038,2.396,5.523,5.325,5.523h7.08"></path>
    <path fill="#472b29" d="M69.716 32.915h-7.08c-3.144 0-5.7-2.646-5.7-5.898v-6.73c0-.207.168-.375.375-.375s.375.168.375.375v6.73c0 2.838 2.221 5.148 4.95 5.148h7.08c.207 0 .375.168.375.375S69.923 32.915 69.716 32.915zM66.713 43.943c-.207 0-.375-.168-.375-.375V41.73c0-.207.168-.375.375-.375s.375.168.375.375v1.838C67.088 43.775 66.92 43.943 66.713 43.943zM66.713 48.844c-.207 0-.375-.168-.375-.375v-3.676c0-.207.168-.375.375-.375s.375.168.375.375v3.676C67.088 48.676 66.92 48.844 66.713 48.844zM62.227 65.386H39.859c-2.681 0-4.861-2.144-4.861-4.78V28.342c0-1.587.804-3.068 2.15-3.962.171-.115.404-.068.52.105.114.172.067.405-.105.52-1.136.755-1.814 2.002-1.814 3.337v32.265c0 2.222 1.845 4.03 4.111 4.03h22.368c2.267 0 4.111-1.808 4.111-4.03V49.694c0-.207.168-.375.375-.375s.375.168.375.375v10.912C67.088 63.242 64.908 65.386 62.227 65.386z"></path>
    <path fill="#472b29" d="M52.476 33.202H39.019c-.207 0-.375-.168-.375-.375s.168-.375.375-.375h13.457c.207 0 .375.168.375.375S52.683 33.202 52.476 33.202zM46.308 34.965h-7.289c-.207 0-.375-.168-.375-.375s.168-.375.375-.375h7.289c.207 0 .375.168.375.375S46.515 34.965 46.308 34.965zM40.14 36.728h-1.121c-.207 0-.375-.168-.375-.375s.168-.375.375-.375h1.121c.207 0 .375.168.375.375S40.347 36.728 40.14 36.728zM42.383 36.728h-1.121c-.207 0-.375-.168-.375-.375s.168-.375.375-.375h1.121c.207 0 .375.168.375.375S42.59 36.728 42.383 36.728zM44.626 36.728h-1.122c-.207 0-.375-.168-.375-.375s.168-.375.375-.375h1.122c.207 0 .375.168.375.375S44.833 36.728 44.626 36.728z"></path>
    <g>
        <path fill="#ee3e54" d="M38.325,63.894c-0.82,0-1.481-0.418-1.765-1.118c-0.474-1.164,0.209-2.764,1.876-4.391 c1.305-1.274,3.127-2.323,5.419-3.121c1.219-2.262,2.341-4.685,3.127-6.755c-1.742-2.71-2.063-6.055-1.454-7.924 c0.394-1.209,1.077-1.664,1.579-1.832c0.701-0.236,1.417-0.059,1.916,0.477c0.752,0.809,1.028,2.437,0.843,4.978 c-0.073,1.013-0.41,2.373-1.002,4.049c0.026,0.032,0.052,0.064,0.078,0.096c0.395,0.483,0.817,1.015,1.259,1.572 c0.943,1.189,2.002,2.524,3.08,3.722c0.319-0.01,0.625-0.015,0.922-0.015c3.807,0,6.363,0.796,7.198,2.242 c0.356,0.617,0.363,1.31,0.021,1.904c-0.463,0.801-1.463,1.28-2.677,1.28h-0.001c-0.294,0-0.598-0.029-0.903-0.085 c-1.53-0.282-3.209-1.434-5.266-3.615c-0.526,0.029-1.076,0.07-1.641,0.125c-1.212,0.116-3.552,0.422-5.921,1.168 c-1.019,1.841-3.213,5.558-4.848,6.627C39.546,63.681,38.911,63.894,38.325,63.894z M42.503,57.632 c-1.173,0.567-2.141,1.221-2.894,1.956c-1.48,1.446-1.576,2.352-1.493,2.555c0.024,0.059,0.128,0.071,0.209,0.071 c0.251,0,0.586-0.125,0.919-0.342C39.976,61.394,41.183,59.809,42.503,57.632z M54.915,55.323 c1.268,1.175,2.332,1.832,3.229,1.998c0.205,0.038,0.407,0.057,0.598,0.057h0.001c0.665,0,1.1-0.228,1.223-0.44 c0.022-0.04,0.054-0.094-0.021-0.224C59.662,56.227,58.287,55.423,54.915,55.323z M48.171,50.073 c-0.586,1.441-1.3,2.999-2.076,4.532c1.925-0.477,3.669-0.697,4.677-0.794c0.131-0.012,0.262-0.025,0.391-0.036 c-0.801-0.944-1.572-1.915-2.278-2.805C48.64,50.662,48.402,50.361,48.171,50.073z M47.723,40.33 c-0.012,0-0.04,0.002-0.082,0.016c-0.189,0.063-0.382,0.348-0.517,0.761c-0.403,1.236-0.243,3.317,0.596,5.233 c0.267-0.908,0.427-1.671,0.469-2.253c0.205-2.827-0.253-3.557-0.398-3.713C47.75,40.33,47.735,40.33,47.723,40.33z"></path>
        <path fill="#472b29" d="M38.325,64.219c-0.958,0-1.73-0.494-2.065-1.321c-0.527-1.292,0.184-3.021,1.95-4.746 c1.314-1.285,3.138-2.345,5.419-3.153c1.168-2.179,2.226-4.46,2.992-6.455c-1.735-2.794-2.023-6.153-1.401-8.061 c0.436-1.337,1.211-1.847,1.784-2.04c0.827-0.278,1.67-0.068,2.258,0.564c0.816,0.878,1.12,2.586,0.929,5.223 c-0.072,1.004-0.396,2.336-0.959,3.962c0.387,0.474,0.796,0.99,1.225,1.53c0.906,1.143,1.931,2.433,2.967,3.594 c0.268-0.007,0.527-0.011,0.78-0.011c3.927,0,6.583,0.854,7.479,2.405c0.416,0.719,0.424,1.531,0.021,2.229 c-0.645,1.117-2.23,1.665-3.922,1.351c-1.578-0.291-3.277-1.437-5.338-3.601c-0.476,0.028-0.971,0.066-1.478,0.115 c-1.157,0.112-3.423,0.404-5.73,1.116c-1.151,2.068-3.257,5.56-4.892,6.628C39.67,63.988,38.973,64.219,38.325,64.219z M47.714,38.976c-0.166,0-0.335,0.028-0.504,0.084c-0.433,0.145-1.021,0.544-1.374,1.625c-0.57,1.75-0.267,5.025,1.419,7.648 c0.056,0.087,0.067,0.195,0.03,0.291c-0.793,2.09-1.91,4.503-3.145,6.794c-0.039,0.071-0.103,0.126-0.18,0.153 c-2.246,0.781-4.029,1.806-5.298,3.046c-1.567,1.53-2.225,3.001-1.803,4.036c0.41,1.012,1.821,1.204,3.126,0.352 c1.605-1.049,3.851-4.904,4.742-6.512c0.04-0.073,0.107-0.128,0.187-0.153c2.406-0.758,4.783-1.065,5.986-1.182 c0.569-0.055,1.124-0.097,1.654-0.126c0.098,0.002,0.188,0.032,0.254,0.102c2.009,2.13,3.626,3.249,5.088,3.518 c1.422,0.266,2.736-0.162,3.241-1.037c0.283-0.491,0.275-1.067-0.021-1.579c-0.764-1.322-3.284-2.08-6.916-2.08 c-0.294,0-0.597,0.004-0.911,0.014c-0.11,0-0.188-0.036-0.252-0.107c-1.084-1.205-2.151-2.55-3.093-3.736 c-0.441-0.557-0.862-1.086-1.257-1.569l-0.081-0.101c-0.069-0.087-0.089-0.204-0.052-0.31c0.582-1.649,0.913-2.982,0.984-3.964 c0.176-2.413-0.079-4.005-0.757-4.733C48.496,39.141,48.116,38.976,47.714,38.976z M38.325,62.539 c-0.328,0-0.458-0.148-0.51-0.272c-0.149-0.367,0.012-1.392,1.566-2.912c0.774-0.756,1.777-1.435,2.98-2.016 c0.13-0.063,0.286-0.032,0.382,0.074c0.097,0.106,0.112,0.264,0.038,0.387c-1.373,2.263-2.597,3.846-3.359,4.344 C39.032,62.398,38.642,62.539,38.325,62.539z M38.421,62.035h0.009H38.421z M41.576,58.5c-0.673,0.406-1.256,0.847-1.739,1.32 c-1.096,1.07-1.346,1.76-1.4,2.053c0.171-0.03,0.385-0.112,0.631-0.273C39.626,61.234,40.537,60.105,41.576,58.5z M58.743,57.703 c-0.21,0-0.432-0.021-0.657-0.062c-0.965-0.178-2.073-0.858-3.391-2.08c-0.1-0.092-0.132-0.236-0.08-0.361 c0.051-0.125,0.179-0.224,0.311-0.202c3.302,0.098,4.902,0.867,5.3,1.554c0.113,0.193,0.121,0.372,0.024,0.544 C60.036,57.467,59.445,57.703,58.743,57.703z M55.836,55.697c0.91,0.744,1.704,1.182,2.366,1.304 c0.185,0.034,0.366,0.052,0.539,0.052c0.479,0,0.769-0.13,0.886-0.22C59.364,56.511,58.331,55.89,55.836,55.697z M59.672,56.896 h0.008H59.672z M46.094,54.93c-0.098,0-0.191-0.044-0.254-0.123c-0.079-0.1-0.094-0.236-0.036-0.35 c0.77-1.519,1.484-3.078,2.066-4.507c0.043-0.107,0.14-0.183,0.254-0.199c0.113-0.012,0.229,0.029,0.301,0.119l0.714,0.898 c0.689,0.869,1.471,1.854,2.271,2.796c0.078,0.093,0.099,0.222,0.053,0.334c-0.047,0.113-0.151,0.19-0.272,0.2l-0.39,0.036 c-0.887,0.085-2.669,0.3-4.629,0.786C46.146,54.927,46.121,54.93,46.094,54.93z M48.26,50.707 c-0.463,1.103-0.995,2.268-1.565,3.422c1.506-0.336,2.856-0.521,3.82-0.62c-0.666-0.8-1.308-1.61-1.886-2.338L48.26,50.707z M47.72,46.665c-0.129,0-0.246-0.076-0.298-0.195c-0.818-1.871-1.062-4.067-0.606-5.464c0.099-0.305,0.323-0.836,0.723-0.969 c0.236-0.079,0.412,0.03,0.494,0.12c0.264,0.282,0.682,1.177,0.48,3.954c-0.044,0.604-0.206,1.386-0.481,2.321 c-0.038,0.131-0.154,0.224-0.291,0.232C47.734,46.665,47.727,46.665,47.72,46.665z M47.647,40.757 c-0.062,0.084-0.141,0.226-0.213,0.45c-0.288,0.883-0.299,2.411,0.231,4.071c0.108-0.467,0.175-0.873,0.199-1.213 C48.019,41.937,47.787,41.072,47.647,40.757z M47.724,40.335V40.33V40.335z"></path>
    </g>
    <g>
        <path fill="#472b29" d="M48.56,71.04c-0.128,0-0.256-0.049-0.354-0.146c-0.195-0.195-0.195-0.512,0-0.707l2.784-2.785 c0.195-0.195,0.512-0.195,0.707,0s0.195,0.512,0,0.707l-2.784,2.785C48.816,70.992,48.688,71.04,48.56,71.04z"></path>
    </g>
    <g>
        <path fill="#88ae45" d="M36.689,82.541l-0.131-0.131c-1.058-1.058-1.058-2.79,0-3.848l8.088-8.088 c1.058-1.058,2.79-1.058,3.848,0l0.131,0.131c1.058,1.058,1.058,2.79,0,3.848l-8.088,8.088C39.479,83.6,37.747,83.6,36.689,82.541 z"></path>
        <path fill="#472b29" d="M38.613,83.837c-0.824,0-1.649-0.314-2.277-0.942l0,0l-0.131-0.131 c-1.255-1.256-1.255-3.299,0-4.555l8.088-8.088c1.254-1.255,3.298-1.257,4.556,0l0.131,0.131c0.605,0.605,0.939,1.415,0.939,2.277 c0,0.863-0.334,1.672-0.94,2.278l-8.087,8.088C40.263,83.523,39.438,83.837,38.613,83.837z M37.042,82.188 c0.865,0.866,2.276,0.864,3.142,0l8.087-8.088c0.418-0.417,0.647-0.975,0.647-1.571c0-0.595-0.229-1.153-0.647-1.57l-0.131-0.131 c-0.866-0.866-2.274-0.866-3.141,0l-8.088,8.088c-0.865,0.866-0.865,2.275,0,3.141L37.042,82.188z"></path>
    </g>
    <g>
        <path fill="#d1dc82" d="M48.264,70.825c-0.923-0.923-2.374-0.984-3.223-0.135l-0.154,0.154l0.336,0.336l3.022,3.022 l0.154-0.154C49.248,73.199,49.187,71.749,48.264,70.825z"></path>
    </g>
    <g>
        <path fill="#472b29" d="M48.249,74.982c-0.096,0-0.192-0.037-0.266-0.11l-3.58-3.581c-0.146-0.146-0.146-0.384,0-0.53 c0.146-0.146,0.385-0.146,0.531,0l3.58,3.581c0.146,0.146,0.146,0.384,0,0.53C48.442,74.945,48.345,74.982,48.249,74.982z"></path>
    </g>
    <g opacity=".74">
        <path fill="#77cbd2" d="M60.122 49.129999999999995A9.847 9.847 0 1 0 60.122 68.824A9.847 9.847 0 1 0 60.122 49.129999999999995Z"></path>
    </g>
    <g>
        <path fill="#fdfcef" d="M68.85,50.249c-4.834-4.834-12.672-4.834-17.506,0s-4.834,12.672,0,17.506 c4.834,4.834,12.672,4.834,17.506,0C73.685,62.921,73.685,55.083,68.85,50.249z M67.06,65.965c-3.845,3.845-10.08,3.845-13.925,0 s-3.845-10.08,0-13.925s10.08-3.845,13.925,0S70.905,62.12,67.06,65.965z"></path>
        <path fill="#472b29" d="M60.097,71.874c-3.298,0-6.596-1.255-9.106-3.766c-5.021-5.021-5.021-13.191,0-18.213 c5.022-5.022,13.192-5.02,18.213,0c5.021,5.021,5.021,13.191,0,18.213C66.693,70.619,63.395,71.874,60.097,71.874z M60.097,47.13 c-3.042,0-6.083,1.157-8.399,3.473c-4.632,4.631-4.632,12.167,0,16.799c4.633,4.631,12.168,4.629,16.799,0 c4.632-4.631,4.632-12.167,0-16.799C66.181,48.288,63.139,47.13,60.097,47.13z M60.097,69.349c-2.764,0-5.361-1.076-7.315-3.03 s-3.03-4.552-3.03-7.316s1.076-5.362,3.03-7.316c1.954-1.955,4.552-3.031,7.315-3.031s5.362,1.076,7.316,3.031 c1.954,1.954,3.031,4.552,3.031,7.316s-1.077,5.362-3.031,7.316S62.861,69.349,60.097,69.349z M60.097,49.656 c-2.496,0-4.844,0.972-6.608,2.738c-1.766,1.765-2.737,4.112-2.737,6.609s0.972,4.844,2.737,6.609s4.112,2.737,6.608,2.737 c2.497,0,4.844-0.972,6.609-2.737s2.738-4.112,2.738-6.609s-0.973-4.844-2.738-6.609C64.941,50.628,62.594,49.656,60.097,49.656z"></path>
    </g>
    <g>
        <path fill="#472b29" d="M37.991,83.385c-0.053,0-0.102-0.034-0.119-0.087l-1.377-4.28c-0.021-0.065,0.016-0.136,0.081-0.157 c0.065-0.02,0.136,0.015,0.157,0.081l1.377,4.28c0.021,0.065-0.016,0.136-0.081,0.157C38.016,83.383,38.003,83.385,37.991,83.385z"></path>
    </g>
    <g>
        <path fill="#472b29" d="M38.864,83.088c-0.054,0-0.104-0.035-0.12-0.089l-1.562-5.245c-0.02-0.066,0.019-0.136,0.084-0.155 c0.071-0.021,0.137,0.019,0.156,0.084l1.562,5.245c0.02,0.066-0.019,0.136-0.084,0.155C38.887,83.087,38.875,83.088,38.864,83.088z"></path>
    </g>
    <g>
        <path fill="#472b29" d="M39.389,81.245c-0.054,0-0.104-0.035-0.12-0.089l-1.307-4.389c-0.02-0.066,0.019-0.136,0.084-0.155 c0.073-0.02,0.137,0.019,0.156,0.084l1.307,4.389c0.02,0.066-0.019,0.136-0.084,0.155C39.413,81.244,39.401,81.245,39.389,81.245z"></path>
    </g>
    <g>
        <path fill="#472b29" d="M39.921,79.321c-0.054,0-0.104-0.035-0.12-0.089l-0.921-3.094c-0.02-0.066,0.019-0.136,0.084-0.155 c0.071-0.021,0.137,0.019,0.156,0.084l0.921,3.094c0.02,0.066-0.019,0.136-0.084,0.155C39.945,79.319,39.933,79.321,39.921,79.321z"></path>
    </g>
</svg>