<svg xmlns="http://www.w3.org/2000/svg" x="0px" y="0px" width="64" height="64" viewBox="0 0 172 172" style=" fill:#000000;">
    <g transform="">
        <g fill="none" fill-rule="nonzero" stroke="none" stroke-width="1" stroke-linecap="butt" stroke-linejoin="miter" stroke-miterlimit="10" stroke-dasharray="" stroke-dashoffset="0" font-family="none" font-weight="none" font-size="none" text-anchor="none" style="mix-blend-mode: normal">
            <path d="M0,172v-172h172v172z" fill="none"></path>
            <path d="M85.14,86.86v-1.72h1.72v1.72z" fill="#000000"></path>
            <g>
                <path d="M62.72302,43.18812h45.58672c2.62715,0 4.75688,2.12973 4.75688,4.75688v76.11c0,2.62715 -2.12973,4.75688 -4.75688,4.75688h-60.25375c-2.62715,0 -4.75687,-2.12973 -4.75687,-4.75688v-61.50639c0.022,-1.27267 0.55314,-2.48344 1.47463,-3.36152l14.65117,-14.65117c0.88326,-0.85955 2.06565,-1.34274 3.2981,-1.34778z" fill="#faefde"></path>
                <path d="M43.29911,128.85944l-0.22199,-15.00001l68.94297,-68.94297l1.04651,36.37424l-47.56875,47.56875zM43.07713,97.38478l54.24423,-54.24423l9.11734,0.39641l-63.13959,63.12373zM43.07713,87.87103l44.61949,-44.63534h4.75687l-49.37636,49.39222z" fill="#fff7f0"></path>
                <path d="M98.01903,55.92069l1.95032,3.58351l3.59937,1.96617l-3.59937,1.96617l-1.95032,3.58351l-1.96617,-3.58351l-3.59937,-1.96617l3.59937,-1.96617zM74.09195,52.74944l1.36364,2.48943l2.47358,1.34778l-2.47358,1.34778l-1.36364,2.48943l-1.34778,-2.48943l-2.48943,-1.34778l2.48943,-1.34778zM52.2579,101.90381l0.91966,1.69662l1.69662,0.91966l-1.69662,0.91966l-0.91966,1.69662l-0.91966,-1.69662l-1.69662,-0.91966l1.69662,-0.91966z" fill="#ffffff"></path>
                <path d="M62.32661,43.23569v19.0275h-19.0275z" fill="#bbdef9"></path>
                <path d="M59.15536,71.77694h69.7675v34.88375h-69.7675z" fill="#85cbf8"></path>
                <path d="M49.53062,117.7125c-0.87572,0 -1.58562,0.70991 -1.58562,1.58562v3.17125c0,0.87572 0.70991,1.58562 1.58562,1.58562c0.87572,0 1.58563,-0.70991 1.58563,-1.58562v-3.17125c0,-0.87572 -0.70991,-1.58562 -1.58563,-1.58562zM57.45875,117.7125c-0.87572,0 -1.58562,0.70991 -1.58562,1.58562v3.17125c0,0.87572 0.70991,1.58562 1.58562,1.58562c0.87572,0 1.58563,-0.70991 1.58563,-1.58562v-3.17125c0,-0.87572 -0.70991,-1.58562 -1.58563,-1.58562zM65.38687,124.055c0.87572,0 1.58563,-0.70991 1.58563,-1.58562v-3.17125c0,-0.87572 -0.70991,-1.58562 -1.58563,-1.58562c-0.87572,0 -1.58563,0.70991 -1.58563,1.58562v3.17125c0,0.87572 0.70991,1.58562 1.58563,1.58562zM73.315,124.055c0.87572,0 1.58562,-0.70991 1.58562,-1.58562v-3.17125c0,-0.87572 -0.70991,-1.58562 -1.58562,-1.58562c-0.87572,0 -1.58563,0.70991 -1.58563,1.58562v3.17125c0,0.87572 0.70991,1.58562 1.58563,1.58562zM81.24312,124.055c0.87572,0 1.58563,-0.70991 1.58563,-1.58562v-3.17125c0,-0.87572 -0.70991,-1.58562 -1.58563,-1.58562c-0.87572,0 -1.58562,0.70991 -1.58562,1.58562v3.17125c0,0.87572 0.70991,1.58562 1.58562,1.58562zM89.17125,124.055c0.87572,0 1.58563,-0.70991 1.58563,-1.58562v-3.17125c0,-0.87572 -0.70991,-1.58562 -1.58563,-1.58562c-0.87572,0 -1.58563,0.70991 -1.58563,1.58562v3.17125c0,0.87572 0.70991,1.58562 1.58563,1.58562zM97.09937,124.055c0.87572,0 1.58563,-0.70991 1.58563,-1.58562v-3.17125c0,-0.87572 -0.70991,-1.58562 -1.58563,-1.58562c-0.87572,0 -1.58562,0.70991 -1.58562,1.58562v3.17125c0,0.87572 0.70991,1.58562 1.58562,1.58562zM105.0275,124.055c0.87572,0 1.58563,-0.70991 1.58563,-1.58562v-3.17125c0,-0.87572 -0.70991,-1.58562 -1.58563,-1.58562c-0.87572,0 -1.58562,0.70991 -1.58562,1.58562v3.17125c0,0.87572 0.70991,1.58562 1.58562,1.58562z" fill="#8d6c9f"></path>
                <path d="M127.22625,70.14375h-12.685v-23.78437c0,-2.62715 -2.12973,-4.75687 -4.75687,-4.75687h-46.52224c-2.10411,-0.00376 -4.12341,0.82906 -5.61311,2.31501l-13.73151,13.73151c-1.48595,1.48971 -2.31877,3.50901 -2.31501,5.61311v62.37849c0,2.62715 2.12973,4.75688 4.75687,4.75688h63.425c2.62715,0 4.75687,-2.12973 4.75687,-4.75688v-17.44187h12.685c1.75143,0 3.17125,-1.41982 3.17125,-3.17125v-31.7125c0,-1.75143 -1.41982,-3.17125 -3.17125,-3.17125zM59.90061,46.1691c0.2225,-0.22458 0.46684,-0.42643 0.72939,-0.60254v13.47781c0,0.87572 -0.70991,1.58563 -1.58563,1.58563h-13.47781c0.17487,-0.26347 0.37681,-0.50793 0.60254,-0.72939zM111.37,125.64062c0,0.87572 -0.70991,1.58563 -1.58562,1.58563h-63.425c-0.87572,0 -1.58562,-0.70991 -1.58562,-1.58563v-61.83937h14.27062c2.62715,0 4.75687,-2.12973 4.75687,-4.75687v-14.27062h45.98313c0.87572,0 1.58562,0.70991 1.58562,1.58562v23.78437h-50.74c-1.75143,0 -3.17125,1.41982 -3.17125,3.17125v31.7125c0,1.75143 1.41982,3.17125 3.17125,3.17125h50.74zM127.22625,105.0275h-66.59625v-31.7125h66.59625z" fill="#8d6c9f"></path>
                <path d="M82.82875,79.6575h-9.51375c-0.87572,0 -1.58563,0.70991 -1.58563,1.58562c0,0.87572 0.70991,1.58563 1.58563,1.58563h3.17125v14.27062c0,0.87572 0.70991,1.58563 1.58563,1.58563c0.87572,0 1.58562,-0.70991 1.58562,-1.58563v-14.27062h3.17125c0.87572,0 1.58563,-0.70991 1.58563,-1.58563c0,-0.87572 -0.70991,-1.58562 -1.58563,-1.58562zM105.0275,79.6575c-0.87572,0 -1.58562,0.70991 -1.58562,1.58562c0,0.87572 0.70991,1.58563 1.58562,1.58563h3.17125v14.27062c0,0.87572 0.70991,1.58563 1.58563,1.58563c0.87572,0 1.58562,-0.70991 1.58562,-1.58563v-14.27062h3.17125c0.87572,0 1.58562,-0.70991 1.58562,-1.58563c0,-0.87572 -0.70991,-1.58562 -1.58562,-1.58562zM99.49366,79.87948c-0.749,-0.44924 -1.72026,-0.2082 -2.17231,0.53911l-3.39324,5.67654l-3.39324,-5.66068c-0.2359,-0.5723 -0.78327,-0.955 -1.40177,-0.98006c-0.6185,-0.02506 -1.19504,0.3121 -1.47647,0.86343c-0.28143,0.55134 -0.21628,1.21604 0.16683,1.70225l4.24948,7.15117l-4.26533,7.11946c-0.30156,0.73161 -0.01756,1.57356 0.66553,1.97302c0.68309,0.39947 1.55614,0.23415 2.04589,-0.3874l3.40909,-5.62897l3.39324,5.66068c0.48976,0.62155 1.3628,0.78687 2.04589,0.3874c0.68309,-0.39947 0.96709,-1.24142 0.66553,-1.97302l-4.24948,-7.15117l4.26533,-7.11946c0.44647,-0.75314 0.19803,-1.72561 -0.55497,-2.17231z" fill="#ffffff"></path>
            </g>
            <path d="M86,172c-47.49649,0 -86,-38.50351 -86,-86v0c0,-47.49649 38.50351,-86 86,-86v0c47.49649,0 86,38.50351 86,86v0c0,47.49649 -38.50351,86 -86,86z" fill="none"></path>
            <path d="M86,168.56c-45.59663,0 -82.56,-36.96337 -82.56,-82.56v0c0,-45.59663 36.96337,-82.56 82.56,-82.56v0c45.59663,0 82.56,36.96337 82.56,82.56v0c0,45.59663 -36.96337,82.56 -82.56,82.56z" fill="none"></path>
            <path d="M0,172v-172h172v172z" fill="none"></path>
            <path d="M3.44,168.56v-165.12h165.12v165.12z" fill="none"></path>
            <path d="" fill="none"></path>
            <path d="" fill="none"></path>
            <path d="M0,172v-172h172v172z" fill="none"></path>
            <path d="M3.44,168.56v-165.12h165.12v165.12z" fill="none"></path>
            <path d="M1.72,170.28v-168.56h168.56v168.56z" fill="none"></path>
            <path d="M5.16,166.84v-161.68h161.68v161.68z" fill="none"></path>
            <path d="M22.36,149.64v-127.28h127.28v127.28z" fill="none"></path>
            <path d="M25.8,146.2v-120.4h120.4v120.4z" fill="none"></path>
            <path d="M55.04,116.96v-61.92h61.92v61.92z" fill="none"></path>
            <path d="M58.48,113.52v-55.04h55.04v55.04z" fill="none"></path>
        </g>
    </g>
</svg>